<svg width="528" height="300" viewBox="0 0 528 300" fill="none" xmlns="http://www.w3.org/2000/svg">
<path fill-rule="evenodd" clip-rule="evenodd" d="M250.83 0.778339C234.28 2.08087 215.003 21.3578 176.449 59.9117L59.2723 177.088C20.7184 215.642 1.44149 234.919 0.138965 251.469C-0.991216 265.83 4.82164 279.863 15.7751 289.218C28.3989 300 55.6606 300 110.184 300H135.527C133.982 299.465 132.729 298.787 131.723 297.927C127.585 294.393 125.389 289.091 125.816 283.666C126.308 277.414 133.59 270.132 148.155 255.567L165.288 238.433C179.853 223.868 187.136 216.586 193.388 216.094C198.813 215.667 204.114 217.863 207.649 222.001C211.722 226.77 211.722 237.069 211.722 257.667V274.8C211.722 284.321 211.722 289.081 209.869 292.718C208.287 295.822 205.791 298.363 202.722 300H227.361C252.563 300 265.164 300 274.79 295.095C283.258 290.781 290.142 283.897 294.456 275.43C299.361 265.804 299.361 253.202 299.361 228V110.823C299.361 56.3 299.361 29.0382 288.579 16.4145C279.224 5.46102 265.19 -0.351843 250.83 0.778339Z" fill="black"/>
<rect x="323.361" width="90" height="300" rx="45" fill="black"/>
<rect x="437.361" width="90" height="300" rx="45" fill="black"/>
</svg>
