<svg width="528" height="300" viewBox="0 0 528 300" fill="none" xmlns="http://www.w3.org/2000/svg">
<path d="M250.83 0.778349C265.191 -0.351793 279.224 5.46166 288.579 16.4151C299.361 29.0389 299.361 56.3005 299.361 110.823V228C299.361 253.202 299.361 265.804 294.456 275.43C290.142 283.897 283.258 290.781 274.79 295.096C265.164 300 252.563 300 227.361 300H202.715C205.787 298.363 208.287 295.824 209.869 292.718C211.722 289.081 211.722 284.32 211.722 274.8V257.667C211.722 237.069 211.722 226.77 207.649 222.001C204.115 217.863 198.813 215.668 193.388 216.095C187.136 216.587 179.853 223.869 165.288 238.434L148.156 255.567C133.591 270.132 126.308 277.414 125.816 283.666C125.389 289.091 127.585 294.393 131.723 297.927C132.73 298.787 133.984 299.465 135.53 300H110.184C55.6611 300 28.3995 300 15.7757 289.219C4.82225 279.864 -0.991196 265.83 0.138944 251.47C1.44147 234.92 20.7189 215.643 59.2727 177.089L176.449 59.9121C215.003 21.3583 234.28 2.08088 250.83 0.778349Z" fill="white"/>
<rect x="323.36" width="90" height="300" rx="45" fill="white"/>
<rect x="437.36" width="90" height="300" rx="45" fill="white"/>
</svg>
