<svg xmlns="http://www.w3.org/2000/svg" width="37" height="20" viewBox="0 0 37 20" fill="none">
  <path d="M32.1739 0V3.47826L-8.16584e-06 3.47826V0L32.1739 0Z" fill="black"/>
  <path d="M32.1739 5.21739V8.69565L4.34782 8.69565V5.21739L32.1739 5.21739Z" fill="black"/>
  <path d="M36.5217 10.4348V13.913L4.34782 13.913V10.4348L36.5217 10.4348Z" fill="black"/>
  <path d="M36.5217 15.6522V19.1304L4.34782 19.1304V15.6522L36.5217 15.6522Z" fill="black"/>
  <path d="M10.4348 3.47826V5.21739L6.95651 5.21739V3.47826L10.4348 3.47826Z" fill="black"/>
  <path d="M4.34782 5.21739C3.1947 5.21739 2.08882 5.67546 1.27344 6.49084C0.458064 7.30622 -7.97797e-06 8.4121 -8.16584e-06 9.56522C-8.3537e-06 10.7183 0.458065 11.8242 1.27344 12.6396C2.08882 13.455 3.1947 13.913 4.34782 13.913V10.4384C4.11624 10.4384 3.89415 10.3464 3.7304 10.1826C3.56666 10.0189 3.47466 9.79679 3.47466 9.56522C3.47466 9.33364 3.56666 9.11155 3.7304 8.9478C3.89415 8.78405 4.11624 8.69206 4.34782 8.69206V5.21739Z" fill="black"/>
  <path d="M4.34782 15.6522C3.77685 15.6522 3.21148 15.7646 2.68398 15.9831C2.15648 16.2016 1.67717 16.5219 1.27344 16.9256C0.869707 17.3294 0.54945 17.8087 0.330951 18.3362C0.112452 18.8637 -8.14088e-06 19.429 -8.16584e-06 20H3.47466C3.47466 19.8853 3.49725 19.7718 3.54113 19.6659C3.58501 19.5599 3.64932 19.4637 3.7304 19.3826C3.81148 19.3015 3.90774 19.2372 4.01368 19.1933C4.11961 19.1494 4.23315 19.1268 4.34782 19.1268V15.6522Z" fill="black"/>
  <path d="M32.1739 8.69565C33.327 8.69565 34.4329 8.23758 35.2483 7.4222C36.0637 6.60683 36.5217 5.50094 36.5217 4.34783C36.5217 3.19471 36.0637 2.08882 35.2483 1.27345C34.4329 0.458074 33.327 1.74116e-07 32.1739 0V3.47467C32.4055 3.47467 32.6276 3.56666 32.7913 3.73041C32.9551 3.89416 33.0471 4.11625 33.0471 4.34783C33.0471 4.5794 32.9551 4.80149 32.7913 4.96524C32.6276 5.12899 32.4055 5.22098 32.1739 5.22098V8.69565Z" fill="black"/>
</svg>